<svg xmlns="http://www.w3.org/2000/svg" data-bbox="44.285 211.354 426.155 72.864" viewBox="44.29 211.35 426.97 72.86"><path font-size="48" font-family="Kodchasan" font-weight="400" letter-spacing="-2" stroke="#fff" fill="#fff" d="M131.189 272.575v-42.38q0-4.463 2.622-7.118 2.606-2.655 7.623-2.655h14.61q21.271 0 21.271 17.672 0 8.519-5.163 12.9-5.163 4.382-15.554 4.382l15.163 15.7q.7.717.7 1.809 0 1.4-1.172 2.264-.928.7-1.954.7-1.564 0-2.965-1.564l-17.981-18.91h-10.555v17.2q0 1.564-.896 2.46-.912.896-2.475.896-1.564 0-2.41-.896-.864-.896-.864-2.46Zm6.645-22.607h18.6q7.2 0 10.67-2.687 3.485-2.704 3.485-9.187 0-6.563-3.518-9.43-3.519-2.85-10.636-2.85h-14.61q-1.808 0-2.9 1.172-1.09 1.173-1.09 3.209v19.773Zm62.88 25.963q-10.163 0-15.717-5.245-5.554-5.228-5.554-14.854 0-9.22 5.635-14.496 5.636-5.277 15.408-5.277 6.01 0 10.701 1.921 4.691 1.906 7.313 5.392 2.623 3.469 2.623 7.932 0 3.29-1.84 5.081-1.841 1.792-5.05 1.792h-28.927q0 6.026 4.072 9.43 4.072 3.405 11.336 3.405 4.463 0 7.655-.978 3.209-.977 6.027-3.176 1.482-1.254 2.427-1.254.7 0 1.319.635 1.107.929 1.107 1.955 0 .782-.944 1.71-3.209 3.062-7.509 4.544-4.3 1.483-10.082 1.483Zm-15.245-22.363h27.054q1.4 0 2.1-.587.717-.586.717-2.15 0-2.817-1.889-5.081-1.873-2.264-5.277-3.518-3.388-1.255-7.688-1.255-6.97 0-10.994 3.404-4.023 3.405-4.023 9.187Zm53.573 22.363q-7.655 0-11.987-3.356-4.35-3.371-4.35-9.316 0-5.864 4.578-9.3 4.576-3.437 12.476-3.437 4.61 0 8.16 1.254 3.567 1.254 5.521 3.355v-5q0-4.463-2.931-6.808-2.932-2.346-8.568-2.346-7.264 0-12.59 3.453-1.32.782-2.182.782-.782 0-1.564-.635-.863-.7-.863-1.792 0-1.172 1.01-1.954 2.817-2.2 7.166-3.486 4.333-1.286 8.86-1.286 8.29 0 12.868 3.746 4.577 3.762 4.577 10.554v22.526q0 3.046-2.818 3.046-1.254 0-2.036-.815-.782-.83-.782-2.15v-2.818q-4.837 5.783-14.545 5.783Zm.717-4.773q6.091 0 9.919-2.296 3.828-2.313 3.828-5.994 0-3.665-3.551-5.668-3.55-1.987-10.05-1.987-5.472 0-8.437 2.068-2.98 2.069-2.98 5.978 0 3.844 2.899 5.863 2.9 2.036 8.372 2.036Zm45.748 4.773q-6.254 0-11.01-2.46-4.772-2.46-7.362-7.004-2.573-4.528-2.573-10.554 0-5.945 2.573-10.44 2.59-4.496 7.362-6.955 4.756-2.46 11.01-2.46 5.864 0 10.164 1.646 4.3 1.645 6.808 4.837.62.863.62 1.645 0 1.173-1.174 2.117-.537.473-1.4.473-1.336 0-2.509-1.173-4.137-4.626-12.509-4.626-7.264 0-11.205 3.877-3.958 3.876-3.958 11.06 0 7.117 3.99 11.107 3.99 3.99 11.173 3.99 3.99 0 7.362-1.22 3.356-1.206 5.538-3.47 1.336-1.336 2.509-1.336.7 0 1.563.62 1.091.944 1.091 2.035 0 1.026-.863 1.727-3.827 3.436-7.964 5-4.154 1.564-9.236 1.564Zm47.876-8.519q.863.7.863 1.645 0 .782-.7 1.873-1.645 2.264-4.544 3.632-2.883 1.369-5.929 1.369-5.163 0-8.144-3.046-2.964-3.046-2.964-8.372v-22.9h-4.218q-3.128 0-3.128-2.427 0-1.092.815-1.727.83-.619 2.313-.619h4.218v-13.372q0-1.482.75-2.296.732-.831 2.15-.831 1.319 0 2.068.83.733.815.733 2.297v13.372H328.3q1.418 0 2.232.587.814.586.814 1.759 0 2.427-3.046 2.427h-10.635v23.372q0 6.027 5.635 6.027 1.792 0 3.29-.717 1.482-.7 2.965-2.264 1.172-1.254 2.264-1.254.7 0 1.563.635Zm28.953 8.519q-6.955 0-12.069-2.737-5.13-2.736-7.867-7.9-2.736-5.162-2.736-12.264v-30.262q0-1.482.782-2.313.781-.814 2.117-.814 1.4 0 2.182.814.782.83.782 2.313v30.49q0 8.437 4.463 13.063 4.447 4.61 12.509 4.61 8.127 0 12.704-4.659 4.577-4.642 4.577-13.014v-30.49q0-1.482.814-2.313.815-.814 2.15-.814 1.401 0 2.15.814.75.83.75 2.313v30.262q0 6.874-2.818 12.07-2.818 5.195-8.095 8.013-5.277 2.818-12.395 2.818Zm48.026 0q-5.473 0-10.31-2.069-4.854-2.069-7.672-5.75-.537-.781-.537-1.563 0-.782.423-1.368.44-.587 1.14-.896.62-.244 1.01-.244.7 0 1.222.358.505.358 1.205 1.14 5.082 5.391 13.519 5.391 4.072 0 6.58-1.417 2.492-1.4 2.492-3.909 0-1.791-.977-2.932-.978-1.123-3.274-2.1-2.313-.978-7.558-2.786-5.081-1.71-7.964-3.274-2.9-1.563-4.3-3.567-1.417-1.987-1.417-4.886 0-4.528 3.958-7.264 3.941-2.736 10.505-2.736 4.854 0 8.99 1.677 4.154 1.678 6.255 4.496.636.863.636 1.645 0 1.172-1.255 1.873-.781.472-1.563.472-1.336 0-2.508-1.173-2.02-2.036-4.447-3.013-2.427-.977-6.173-.977-4.153 0-6.336 1.335-2.199 1.32-2.199 3.747 0 1.807.912 2.85.896 1.059 2.883 1.89 2.004.814 7.004 2.459 5.62 1.873 8.714 3.55 3.095 1.678 4.463 3.714 1.368 2.036 1.368 5 0 4.691-4.105 7.509-4.104 2.818-10.684 2.818Zm39.67 0q-10.164 0-15.718-5.245-5.554-5.228-5.554-14.854 0-9.22 5.636-14.496 5.635-5.277 15.408-5.277 6.01 0 10.7 1.921 4.692 1.906 7.314 5.392 2.622 3.469 2.622 7.932 0 3.29-1.84 5.081-1.84 1.792-5.05 1.792h-28.926q0 6.026 4.072 9.43 4.071 3.405 11.336 3.405 4.463 0 7.655-.978 3.209-.977 6.026-3.176 1.483-1.254 2.427-1.254.7 0 1.32.635 1.107.929 1.107 1.955 0 .782-.945 1.71-3.208 3.062-7.508 4.544-4.3 1.483-10.082 1.483Zm-15.245-22.363h27.053q1.401 0 2.101-.587.717-.586.717-2.15 0-2.817-1.89-5.081-1.872-2.264-5.277-3.518-3.387-1.255-7.687-1.255-6.971 0-10.994 3.404-4.023 3.405-4.023 9.187Z" stroke-width="1.62876"></path><g fill="rgba(8, 126, 164, 1)"><path d="M105.272 249.845c-.656-.85-1.367-1.7-2.126-2.546a43.483 43.483 0 0 0 1.488-1.82c4.84-6.277 6.215-11.971 3.87-16.033-2.345-4.062-7.963-5.719-15.82-4.665a43.56 43.56 0 0 0-2.533.42 43.684 43.684 0 0 0-.93-2.48c-3.015-7.33-7.259-11.367-11.949-11.367s-8.934 4.037-11.95 11.368a43.684 43.684 0 0 0-.93 2.479 43.702 43.702 0 0 0-2.532-.42c-7.856-1.054-13.475.603-15.82 4.665s-.97 9.756 3.87 16.033c.468.607.966 1.214 1.488 1.82-.76.847-1.47 1.696-2.126 2.546-4.84 6.277-6.215 11.97-3.87 16.033 1.885 3.264 5.88 4.974 11.454 4.974 1.363 0 2.822-.102 4.366-.31.995-.133 2.014-.309 3.052-.523.327.98.676 1.925 1.048 2.83 3.016 7.331 7.26 11.368 11.95 11.368s8.934-4.037 11.95-11.368c.372-.905.721-1.85 1.048-2.83a44.24 44.24 0 0 0 3.052.523c1.544.208 3.002.31 4.366.31 5.573 0 9.57-1.71 11.454-4.974 2.345-4.062.97-9.756-3.87-16.033zm-8.198-21.111c3.903 0 6.66.99 7.733 2.847 1.402 2.429.107 6.544-3.554 11.29-.349.453-.716.905-1.098 1.358-2.14-2.037-4.55-4.029-7.17-5.928-.363-3.161-.907-6.183-1.62-8.992 2.09-.385 4.01-.575 5.71-.575zM82.94 258.03a81.593 81.593 0 0 1-5.667 2.985 81.42 81.42 0 0 1-5.669-2.985 80.767 80.767 0 0 1-6.058-3.862 81.495 81.495 0 0 1-.247-6.383c0-2.476.109-4.853.308-7.116a81.238 81.238 0 0 1 5.36-3.377 81.008 81.008 0 0 1 6.305-3.285 80.984 80.984 0 0 1 6.305 3.285 81.2 81.2 0 0 1 5.36 3.377c.2 2.263.308 4.64.308 7.116 0 2.21-.087 4.34-.248 6.383a80.735 80.735 0 0 1-6.057 3.862zm5.406 1.71a61.214 61.214 0 0 1-1.031 5.151 61.332 61.332 0 0 1-4.935-1.672 86.516 86.516 0 0 0 5.966-3.48zm-16.182 3.478a61.287 61.287 0 0 1-4.935 1.673 61.246 61.246 0 0 1-1.031-5.152 86.328 86.328 0 0 0 5.966 3.48zm-11.082-12.453a59.28 59.28 0 0 1-3.788-3.413 61.42 61.42 0 0 1 3.819-3.342 86.38 86.38 0 0 0-.031 6.755zm5.234-15.66a59.845 59.845 0 0 1 1.014-4.827c1.517.424 3.098.938 4.729 1.545a86.459 86.459 0 0 0-5.743 3.283zm16.169-3.283a59.7 59.7 0 0 1 4.729-1.544 59.862 59.862 0 0 1 1.014 4.828 86.568 86.568 0 0 0-5.743-3.284zm10.946 12.188a61.42 61.42 0 0 1 3.819 3.342 59.28 59.28 0 0 1-3.788 3.413 86.49 86.49 0 0 0-.03-6.755zm-16.159-28.388c3.088 0 6.368 3.928 8.713 10.573-2.825.794-5.753 1.847-8.713 3.134-2.96-1.287-5.888-2.34-8.713-3.134 2.345-6.645 5.625-10.573 8.713-10.573zm-27.535 15.958c1.072-1.857 3.83-2.847 7.733-2.847 1.7 0 3.618.19 5.708.576-.712 2.809-1.256 5.83-1.618 8.992-2.621 1.898-5.03 3.89-7.17 5.927-.383-.453-.75-.905-1.1-1.357-3.66-4.747-4.955-8.862-3.553-11.291zm7.095 35.009c-3.902 0-6.66-.99-7.732-2.847-1.403-2.429-.107-6.544 3.553-11.29a40.043 40.043 0 0 1 1.678-2.03c2.116 2.08 4.518 4.12 7.144 6.07.346 3.31.889 6.477 1.614 9.417-2.304.457-4.41.68-6.257.68zm20.44 13.358c-3.148 0-6.495-4.083-8.848-10.964 2.873-.835 5.847-1.935 8.848-3.271 3 1.336 5.975 2.436 8.848 3.271-2.353 6.881-5.7 10.964-8.848 10.964zm28.172-16.205c-1.579 2.735-6.818 3.59-13.99 2.167.726-2.94 1.27-6.107 1.615-9.418 2.626-1.948 5.028-3.989 7.143-6.07a40.106 40.106 0 0 1 1.679 2.03c3.66 4.747 4.956 8.862 3.553 11.291z"></path><path data-type="circle" data-cx="256" data-cy="256" data-r="46.35" d="M70.676 247.786a6.596 6.596 0 1 0 13.192 0 6.596 6.596 0 1 0-13.192 0"></path></g></svg>
